<?xml version="1.0" encoding="UTF-8" standalone="no"?>
<svg
   version="1.0"
   width="934.92218pt"
   height="123.783pt"
   viewBox="0 0 934.92218 123.78299"
   preserveAspectRatio="xMidYMid"
   id="svg53"
   sodipodi:docname="nd-logo.svg"
   inkscape:version="1.3.2 (091e20e, 2023-11-25)"
   xmlns:inkscape="http://www.inkscape.org/namespaces/inkscape"
   xmlns:sodipodi="http://sodipodi.sourceforge.net/DTD/sodipodi-0.dtd"
   xmlns="http://www.w3.org/2000/svg"
   xmlns:svg="http://www.w3.org/2000/svg">
  <defs
     id="defs53" />
  <sodipodi:namedview
     id="namedview53"
     pagecolor="#ffffff"
     bordercolor="#000000"
     borderopacity="0.25"
     inkscape:showpageshadow="2"
     inkscape:pageopacity="0.0"
     inkscape:pagecheckerboard="true"
     inkscape:deskcolor="#d1d1d1"
     inkscape:document-units="pt"
     inkscape:zoom="0.42812916"
     inkscape:cx="618.97208"
     inkscape:cy="144.81611"
     inkscape:window-width="1376"
     inkscape:window-height="815"
     inkscape:window-x="49"
     inkscape:window-y="38"
     inkscape:window-maximized="0"
     inkscape:current-layer="svg53" />
  <g
     transform="matrix(0.1,0,0,-0.1,-37.723349,993.25931)"
     fill="#000000"
     stroke="none"
     id="g53">
    <path
       d="M 988.13125,9901.7636 C 887.55438,9888.3752 789.5899,9852.7813 713.83069,9802.1664 671.37943,9773.7567 618.15206,9722.8152 589.08926,9681.6701 552.8424,9630.7286 521.82031,9564.1127 506.14599,9502.0685 491.12477,9444.596 485.9,9343.6926 495.04335,9291.1183 c 12.40884,-71.1875 28.08316,-115.2715 64.33001,-178.2953 40.49199,-71.1875 79.35124,-114.2919 148.57947,-165.8866 49.96189,-36.8999 92.41316,-59.4318 145.31398,-76.7388 80.65741,-26.4504 94.69904,-29.0628 160.98829,-29.3893 66.9424,0 88.8212,3.5919 155.1105,25.1441 75.106,24.4912 119.5166,48.9823 178.6219,98.6176 83.9229,70.2079 132.5786,139.4362 163.9272,234.1351 17.9601,54.2071 26.1238,96.6584 28.4097,148.2529 4.5717,94.6991 -13.3885,176.3362 -57.7991,266.137 -71.514,143.3546 -205.7254,243.2784 -373.8977,278.8721 -36.5734,7.5107 -98.9441,12.7354 -120.49635,9.7965 z m 52.90085,-82.6167 c 14.6947,-6.8575 27.1035,-25.4708 27.1035,-41.1451 0,-25.7973 -22.8584,-47.3495 -49.9619,-47.3495 -28.73623,0 -48.00261,17.6336 -48.00261,44.4105 0,21.5522 28.40973,49.962 50.61501,49.962 3.592,0 12.7354,-2.6124 20.246,-5.8779 z M 886.57474,9766.246 c 25.47077,-22.2052 21.22564,-56.8194 -8.81681,-71.8406 -16.32741,-8.4902 -31.02208,-6.2044 -46.36985,7.1841 -18.28671,16.0009 -19.26635,43.1044 -2.28584,60.0849 17.96016,18.2867 40.16544,19.9194 57.4725,4.5716 z m -120.49632,-81.9635 c 18.2867,-14.3681 25.79731,-44.0841 16.65396,-65.9628 -6.85751,-16.3274 -19.5929,-24.8177 -38.20615,-24.8177 -13.06193,0 -17.96015,1.6328 -27.43005,10.123 -21.55218,18.9398 -27.1035,42.4513 -15.34777,64.33 12.08228,22.8584 45.06366,31.3487 64.33001,16.3275 z m 160.9883,-5.8779 c 7.83717,-4.8983 14.36815,-14.3682 25.14421,-36.2469 l 14.36811,-29.7159 10.44958,16.9805 c 15.34778,25.1443 35.26718,30.369 49.96188,13.062 11.1026,-13.3885 14.6947,-27.4301 16.9805,-68.5751 1.9593,-31.6753 1.6328,-34.9408 -4.8982,-42.7779 -15.6743,-19.9194 -30.6956,-14.6947 -67.59549,23.5115 -35.59375,37.2265 -38.53269,39.8389 -54.53358,49.3088 -17.63361,10.123 -31.67519,29.7159 -33.96102,48.0026 -1.63275,11.4292 -0.6531,14.3681 8.1637,23.1849 11.42919,11.4292 20.8991,12.4089 35.92031,3.2655 z m 301.40408,-94.699 c 40.4919,-20.8991 43.7574,-71.8407 6.8575,-105.1486 -22.2053,-20.246 -49.6354,-19.2663 -74.7796,2.2859 -26.1238,22.2052 -31.022,58.4521 -11.7557,82.6167 20.8991,25.7973 52.5743,33.961 79.6778,20.246 z m -560.03031,-15.0213 c 22.85838,-10.776 33.96102,-41.145 22.85838,-61.7176 -5.87787,-10.776 -26.12386,-24.4911 -35.92031,-24.4911 -9.79645,0 -30.69554,12.7354 -37.8796,22.8584 -27.43006,38.5327 8.8168,83.2698 50.94153,63.3503 z m 186.78561,0.6531 c 7.51061,-4.245 73.14682,-70.8609 79.67779,-81.637 4.57164,-6.8575 2.61238,-20.5726 -3.59205,-28.4097 -7.83715,-9.7965 -28.08314,-10.123 -42.77781,-0.6531 -16.65396,10.4496 -65.6362,60.4114 -72.49372,74.1264 -14.36813,28.0832 10.77609,51.5947 39.18579,36.5734 z m -84.576,-62.6972 c 12.40883,-10.123 13.38847,-25.4708 3.26548,-38.5327 -9.79645,-12.4089 -25.47077,-11.7557 -38.5327,1.6327 -13.06193,12.7354 -13.38848,26.1239 -1.63274,37.2265 11.42919,10.4496 24.16458,10.4496 36.89996,-0.3265 z m 298.7917,-78.6982 c 18.9398,-13.3884 26.1238,-27.43 26.1238,-51.268 0,-37.8796 -23.838,-64.0035 -60.0849,-66.6159 -58.45208,-4.2451 -89.14763,58.1256 -52.90077,106.7813 18.61327,24.8177 59.75837,30.0424 86.86187,11.1026 z m -428.75791,-16.0008 c 9.4699,-8.4902 19.26634,-28.7363 19.26634,-39.5124 -0.32655,-16.6539 -11.75574,-36.5734 -24.16457,-41.7981 -45.06366,-18.9399 -88.82113,25.7973 -63.02381,64.0035 12.40883,18.2866 27.43005,26.7769 45.71675,24.8176 8.8168,-0.6531 18.28671,-3.9186 22.20529,-7.5106 z m 248.82978,-11.1027 c 17.30706,-13.715 12.40883,-41.7982 -8.8168,-50.615 -15.34777,-6.5309 -120.16977,-6.8574 -132.57861,-0.653 -8.8168,4.5716 -22.85837,23.5115 -22.85837,30.6955 0,6.531 17.96015,23.185 27.1035,24.8177 3.91858,0.6531 34.61412,1.6327 67.92204,1.9592 56.16631,0.3266 61.39108,-0.3265 69.22824,-6.2044 z m 43.1044,-109.3936 c 14.04155,-13.715 10.77606,-21.8788 -20.89911,-55.8398 -11.75574,-12.7354 -27.10351,-30.0424 -33.63448,-38.2062 -15.67432,-18.6132 -36.89996,-28.0831 -51.26808,-22.2052 -9.4699,4.2451 -16.65396,15.3478 -16.65396,26.7769 0,11.1027 12.40884,31.6752 25.14422,41.1451 6.53096,4.8983 20.89909,18.6133 31.67518,30.0425 21.87874,22.8584 27.10351,25.7973 45.39021,26.1238 8.81681,0.3266 14.69467,-1.9593 20.24602,-7.8371 z m -162.29452,-4.8982 c 9.14335,-8.4903 9.14335,-16.9806 0,-27.4301 -12.08229,-13.062 -20.89909,-13.7151 -32.00174,-2.2858 -12.73538,12.4088 -13.06192,24.491 -0.65309,31.022 12.40884,6.8576 24.16458,6.2044 32.65483,-1.3061 z m 462.71885,-14.0417 c 42.1248,-23.838 45.0637,-83.5963 5.5513,-110.6998 -53.8804,-37.2265 -124.7414,24.8177 -93.7193,81.9636 17.9602,32.6548 58.1256,45.7168 88.168,28.7362 z m -556.76475,-12.0822 c 22.20528,-16.0009 24.49112,-45.0637 4.89822,-67.9221 -12.40883,-14.3681 -25.14422,-17.9601 -43.43092,-13.0619 -13.06193,3.592 -30.04244,28.0832 -30.04244,43.1044 0,32.3282 43.10437,56.1663 68.57514,37.8796 z m 352.01905,-24.8177 c 14.3681,-10.123 16.9805,-20.5725 16.9805,-69.8813 0,-48.9823 -3.592,-64.9831 -15.6743,-71.5141 -10.4495,-5.5513 -25.1442,-4.2452 -33.96101,2.9389 -14.36818,11.1027 -16.98056,22.5318 -14.69467,68.5752 1.95927,48.0026 5.87787,58.4522 24.49108,68.2486 14.6947,8.1637 14.0416,7.8372 22.8584,1.6327 z m -74.77954,-77.7185 c 6.85746,-8.1637 7.83713,-26.4504 2.28582,-36.8999 -6.85754,-13.715 -33.96103,-36.9 -43.10438,-36.9 -8.8168,0 -24.16457,17.3071 -24.16457,27.7566 0,11.1026 19.5929,37.8796 32.65483,44.7371 13.38847,7.1841 27.10347,7.5107 32.3283,1.3062 z m -182.21397,-17.9601 c 12.08229,-12.0823 12.73538,-13.7151 12.73538,-32.6548 0,-11.1027 -1.95928,-25.1443 -4.57167,-31.3487 -11.75574,-28.0832 -59.75834,-28.0832 -78.37158,0 -7.83716,12.0823 -6.85751,37.5531 2.28583,50.9415 10.77609,16.0009 27.1035,25.7973 42.45128,25.7973 10.44954,0 15.02122,-2.2858 25.47076,-12.7353 z m 108.08749,-84.576 c 19.59289,-12.7354 30.36898,-36.9 26.4504,-57.146 -0.97964,-5.5513 -8.1637,-16.0009 -15.67431,-23.838 -11.75574,-12.7354 -15.34777,-14.3681 -27.43006,-14.3681 -25.79731,0 -46.04331,22.5318 -46.04331,50.9415 0,20.8991 9.14336,35.9203 27.10351,43.7574 16.98051,7.8372 24.49112,8.1637 35.59377,0.6532 z m 162.62102,-47.023 c 16.3275,-11.1027 23.5115,-23.185 25.4708,-41.1451 3.9186,-42.7778 -41.4717,-74.453 -74.45305,-51.9211 -17.6336,11.7557 -23.83803,22.5318 -23.83803,42.1247 -0.65304,43.1043 41.14518,72.1672 72.82028,50.9415 z"
       id="path1"
       mask="none"
       clip-path="none"
       style="stroke-width:0.326548" />
    <g
       id="g54"
       transform="translate(385.39771,4782.4352)">
      <path
         d="m 5373,5040 c -12,-5 -29,-21 -39,-35 -14,-22 -15,-32 -5,-65 11,-38 51,-80 76,-80 23,0 80,46 89,72 13,36 -9,85 -45,103 -32,17 -44,18 -76,5 z"
         id="path4" />
      <path
         d="m 7945,5025 c -36,-35 -34,-88 4,-126 42,-41 72,-38 115,13 42,49 45,80 11,113 -34,35 -96,35 -130,0 z"
         id="path5" />
      <path
         d="m 1442,5012 c -69,-3 -73,-4 -67,-23 4,-12 7,-203 7,-425 v -404 h 80 81 l -7,288 c -5,178 -4,283 2,277 28,-30 210,-270 292,-385 142,-199 132,-190 213,-183 l 67,6 v 423 424 h -75 -75 l -2,-281 -3,-282 -90,119 c -49,65 -128,168 -175,229 -47,61 -100,133 -118,162 -18,28 -38,53 -45,55 -7,1 -45,2 -85,0 z"
         id="path6" />
      <path
         d="m 4523,4868 c 4,-83 7,-276 7,-429 v -278 l 118,-3 c 64,-2 164,0 221,3 91,6 111,11 176,43 132,65 215,182 237,331 10,72 9,88 -11,165 -14,56 -33,103 -57,137 -42,62 -132,126 -208,148 -45,14 -299,34 -440,35 h -49 z m 463,-58 c 49,-25 77,-47 99,-78 28,-41 30,-50 30,-130 0,-66 -5,-97 -19,-126 -26,-52 -82,-104 -136,-128 -48,-21 -226,-45 -254,-35 -14,6 -16,37 -16,273 v 266 l 114,-3 c 106,-4 117,-6 182,-39 z"
         id="path7" />
      <path
         d="m 7638,4953 c -15,-4 -18,-16 -18,-79 v -76 l -32,4 c -33,3 -33,3 -36,-44 -4,-66 7,-83 55,-80 l 38,3 v -203 c 0,-192 1,-205 22,-238 25,-40 88,-80 125,-80 44,0 88,21 94,44 3,13 4,42 2,67 -2,35 -6,43 -20,41 -9,-1 -33,4 -53,12 l -35,15 2,168 3,168 48,3 47,3 v 39 c 0,21 3,45 6,54 5,12 -5,16 -53,18 l -58,3 -3,83 -3,82 -57,-1 c -31,-1 -65,-3 -74,-6 z"
         id="path8" />
      <path
         d="m 4023,4799 c -63,-24 -155,-106 -186,-163 -17,-33 -21,-59 -22,-131 0,-82 3,-96 33,-157 34,-70 97,-135 162,-168 161,-81 393,36 448,226 43,148 -36,306 -191,384 -74,37 -163,40 -244,9 z m 186,-139 c 44,-22 88,-70 97,-107 4,-13 4,-50 1,-80 -15,-140 -170,-212 -263,-122 -62,60 -84,126 -65,197 30,108 136,160 230,112 z"
         id="path9" />
      <path
         d="m 2387,4799 c -56,-13 -90,-33 -140,-83 -70,-70 -90,-122 -85,-225 4,-102 32,-170 103,-249 114,-127 289,-121 433,15 54,52 61,63 38,63 -7,0 -33,9 -57,19 l -44,20 -69,-35 c -75,-37 -100,-41 -149,-21 -39,17 -107,90 -107,116 0,17 12,19 222,20 157,1 224,4 229,13 13,20 -2,121 -26,174 -49,112 -151,185 -254,183 -31,-1 -73,-5 -94,-10 z m 159,-150 c 27,-16 64,-71 64,-93 0,-3 -67,-6 -149,-6 h -150 l 10,29 c 14,40 49,70 100,86 50,15 80,11 125,-16 z"
         id="path10" />
      <path
         d="m 2808,4710 c -3,-150 2,-301 13,-357 14,-69 76,-164 122,-186 74,-35 197,-8 256,57 35,37 45,33 38,-18 l -6,-44 72,2 72,1 v 318 318 l -77,-3 -78,-2 v -190 c 0,-213 -6,-236 -72,-276 -66,-40 -133,-19 -169,52 -18,35 -20,56 -17,228 l 3,189 -78,3 -77,3 z"
         id="path11" />
      <path
         d="m 3725,4794 c -16,-8 -48,-31 -72,-50 l -43,-35 v 40 39 l -76,4 c -42,2 -76,2 -77,1 -1,-1 -1,-143 1,-317 l 3,-316 h 79 79 l 1,168 c 0,178 7,230 38,271 26,37 81,63 118,57 31,-4 32,-3 37,42 3,26 9,62 13,80 6,32 6,32 -32,32 -22,0 -52,-7 -69,-16 z"
         id="path12" />
      <path
         d="m 5682,4797 c -40,-12 -117,-79 -137,-118 -20,-37 -19,-103 2,-146 22,-46 72,-78 188,-118 134,-47 150,-64 99,-104 -41,-32 -101,-28 -153,10 -46,32 -74,33 -133,3 -43,-22 -35,-48 26,-94 130,-98 258,-106 356,-23 78,67 102,167 57,234 -28,42 -104,84 -200,111 -108,30 -134,65 -81,107 41,32 105,28 147,-9 l 34,-30 47,37 c 65,51 60,68 -32,115 -61,32 -83,38 -130,37 -31,-1 -72,-6 -90,-12 z"
         id="path13" />
      <path
         d="m 6310,4803 c -14,-3 -41,-19 -60,-37 -19,-18 -44,-39 -54,-47 -18,-13 -19,-12 -14,29 l 6,42 h -71 -72 l -2,-316 -2,-316 22,6 c 12,3 51,6 87,6 h 65 l -3,182 c -4,246 16,298 117,301 l 39,2 7,67 c 8,90 6,93 -65,81 z"
         id="path14" />
      <path
         d="m 8858,4800 c -59,-10 -103,-37 -156,-94 -70,-76 -86,-118 -86,-221 0,-75 4,-97 23,-134 35,-66 107,-138 169,-167 77,-36 187,-39 254,-6 58,29 165,129 151,143 -5,5 -37,14 -70,20 -59,10 -62,10 -117,-21 -50,-28 -63,-32 -104,-26 -60,8 -120,48 -138,93 -9,19 -12,38 -9,42 4,3 98,6 209,6 223,0 231,2 242,59 8,48 -11,108 -59,178 -68,99 -188,149 -309,128 z m 160,-161 c 37,-36 49,-66 32,-83 -7,-7 -58,-11 -146,-11 h -135 l 5,29 c 13,62 67,96 152,96 54,0 64,-3 92,-31 z"
         id="path15" />
      <path
         d="m 5328,4793 c -2,-5 -1,-147 2,-318 l 5,-310 h 72 73 l 1,70 c 0,39 1,181 2,317 l 2,248 h -77 c -42,0 -78,-3 -80,-7 z"
         id="path16" />
      <path
         d="m 6411,4589 c -3,-250 5,-291 71,-361 81,-86 205,-93 286,-15 33,32 35,31 32,-19 l -1,-30 h 70 l 70,1 -2,316 -2,316 -70,-1 c -66,-1 -70,-2 -76,-26 -4,-14 -7,-108 -8,-210 -1,-159 -4,-188 -19,-206 -42,-53 -113,-60 -156,-15 -39,41 -45,82 -46,284 v 177 h -73 -73 z"
         id="path17" />
      <path
         d="m 7000,4790 c 0,-3 -1,-197 -4,-431 l -4,-427 72,-5 c 39,-2 79,-8 90,-12 17,-8 18,-3 12,86 -4,52 -9,125 -12,162 l -6,68 47,-33 c 42,-30 53,-33 113,-32 111,1 185,55 241,174 22,46 26,69 26,145 0,79 -3,97 -29,147 -59,116 -125,167 -215,168 -54,0 -121,-31 -155,-71 -14,-16 -28,-29 -32,-29 -3,0 -4,20 -2,44 l 5,45 -73,3 c -41,2 -74,1 -74,-2 z m 344,-153 c 56,-31 89,-97 82,-159 -11,-101 -71,-168 -152,-168 -81,0 -124,62 -124,177 0,82 21,122 77,152 49,26 69,26 117,-2 z"
         id="path18" />
      <path
         d="m 7931,4491 1,-311 h 69 69 v 305 305 h -54 c -30,0 -62,3 -70,6 -15,6 -16,-23 -15,-305 z"
         id="path19" />
      <path
         d="m 8096,4753 c 3,-21 22,-74 41,-118 57,-130 89,-213 134,-342 l 43,-123 h 61 61 l 18,58 c 10,31 39,104 63,162 65,152 140,341 148,373 l 7,27 h -78 -79 l -39,-123 c -21,-67 -54,-156 -73,-197 l -35,-75 -53,160 c -29,88 -60,177 -69,198 l -16,37 h -71 -70 z"
         id="path20" />
    </g>
  </g>
</svg>
